# xmcd
#
# Track frame offsets:
#	150
#	23967
#	37000
#	61842
#	78895
#	96747
#	110965
#	123077
#	132850
#	145527
#
# Disc length: 2129 seconds
#
# Revision: 0
# Processed by: cddbd v1.4PL0 Copyright (c) Steve Scherf et al.
# Submitted via: dBpowerAMP V4.0
#
DISCID=87084f0a
DTITLE=Various  - Let Freedom Sing
DYEAR=1900
DGENRE=Country
TTITLE0=Charlie Daniels - America, I Believe In You
TTITLE1=Merle Haggard - The Fightin' Side Of Me
TTITLE2=Tyler England - Travelin' Soldier
TTITLE3=Eddy Raven - Somebody's Tearin' The Flag
TTITLE4=Chris LeDoux - I Believe In America
TTITLE5=Wanda Jackson - Battle Hymn Of The Republic
TTITLE6=Glen Campbell - Galveston
TTITLE7=Nitty Gritty Dirt Band - Soldiers Joy(Instrumental)
TTITLE8=Tennessee Ernie Ford - America, I Love You
TTITLE9=Lee GReenwood - God Bless The U.S.A.
EXTD=
EXTT0=
EXTT1=
EXTT2=
EXTT3=
EXTT4=
EXTT5=
EXTT6=
EXTT7=
EXTT8=
EXTT9=
PLAYORDER=
